<svg width="68" height="68" viewBox="0 0 68 68" version="1.1" xmlns="http://www.w3.org/2000/svg" xmlns:xlink="http://www.w3.org/1999/xlink">
<title>Group 12.2</title>
<desc>Created using Figma</desc>
<g id="Canvas" transform="translate(-10816 -8950)">
<g id="Group 12.2">
<g id="Ellipse 2.3">
<mask id="mask0_outline_ins">
<use xlink:href="#path0_fill" fill="white" transform="translate(10816 8950)"/>
</mask>
<g mask="url(#mask0_outline_ins)">
<use xlink:href="#path1_stroke_2x" transform="translate(10816 8950)" fill="#FFFFFF"/>
</g>
</g>
<g id="google-logo">
<g id="Group">
<g id="Google">
<use xlink:href="#path2_fill" transform="translate(10830.6 8959.91)" fill="#FFFFFF"/>
</g>
</g>
</g>
<g id="Group 11.1">
<g id="4">
<use xlink:href="#path3_fill" transform="translate(10858.2 8974.48)" fill="#FFFFFF"/>
</g>
<g id="4">
<use xlink:href="#path3_fill" transform="translate(10860.9 8974.48)" fill="#FFFFFF"/>
</g>
</g>
</g>
</g>
<defs>
<path id="path0_fill" d="M 68 34C 68 52.7777 52.7777 68 34 68C 15.2223 68 0 52.7777 0 34C 0 15.2223 15.2223 0 34 0C 52.7777 0 68 15.2223 68 34Z"/>
<path id="path1_stroke_2x" d="M 64 34C 64 50.5685 50.5685 64 34 64L 34 72C 54.9868 72 72 54.9868 72 34L 64 34ZM 34 64C 17.4315 64 4 50.5685 4 34L -4 34C -4 54.9868 13.0132 72 34 72L 34 64ZM 4 34C 4 17.4315 17.4315 4 34 4L 34 -4C 13.0132 -4 -4 13.0132 -4 34L 4 34ZM 34 4C 50.5685 4 64 17.4315 64 34L 72 34C 72 13.0132 54.9868 -4 34 -4L 34 4Z"/>
<path id="path2_fill" d="M 28.0389 2.12911C 29.0628 1.559 28.658 0 27.4861 0L 18.7098 0C 15.3405 0 11.116 0.481932 7.52922 3.27825C 7.36407 3.407 7.20253 3.54149 7.04664 3.68132C 4.45757 6.0036 3.19714 9.12279 3.19714 11.9483C 3.19714 11.9483 3.19714 11.9483 3.19714 11.9483C 3.19714 16.8795 7.02831 21.8772 13.7958 21.8772C 13.7958 21.8772 13.7958 21.8772 13.7958 21.8772C 14.7259 21.8772 15.3257 22.772 15.2259 23.6967C 15.2084 23.8588 15.1988 24.0311 15.1988 24.2167C 15.1988 26.2597 14.3443 28.6757 12.3251 28.9869C 9.89367 29.3615 7.20141 30.0471 4.95512 31.3989C 4.93053 31.4137 4.90552 31.4286 4.88084 31.4433C 1.1447 33.66 0.000574382 36.8664 2.65116e-07 39.1362C -2.65416e-08 39.1373 -8.56713e-08 39.1384 5.35151e-08 39.1396C 0.000564849 43.8186 4.47174 48.1829 13.7299 48.1829C 13.7299 48.1829 13.7299 48.1829 13.7299 48.1829C 24.7125 48.1829 30.5246 42.1761 30.5246 36.2282C 30.5246 32.0992 28.2337 29.9499 25.6041 27.7464C 25.3092 27.4993 25.0082 27.2591 24.7032 27.0244L 23.1957 25.8645C 22.9727 25.6929 22.7502 25.5205 22.5356 25.3385C 21.8979 24.7974 21.2043 24.0726 21.2043 22.8874C 21.2043 22.8874 21.2043 22.8874 21.2043 22.8874C 21.2043 22.1934 21.4428 21.6249 21.7848 21.1272C 22.4655 20.1366 23.4801 19.4353 24.3967 18.6577C 26.5356 16.8433 28.3546 14.6624 28.3546 10.8101C 28.3546 10.8101 28.3546 10.8101 28.3546 10.8101C 28.3546 8.19061 27.4438 6.2474 26.3774 4.82696C 25.6471 3.85423 26.2287 2.27262 27.445 2.27262L 27.4861 2.27262C 27.6796 2.27262 27.8698 2.22323 28.0389 2.12911ZM 26.2484 38.6957C 26.2484 42.6156 22.9902 45.5232 16.8595 45.5232C 16.8595 45.5232 16.8595 45.5232 16.8595 45.5232C 10.0289 45.5232 5.62146 42.2981 5.62146 37.8112C 5.62146 33.6758 9.08342 32.0654 10.7287 31.4402C 10.9842 31.3432 11.2406 31.2544 11.5026 31.1767C 14.1192 30.4007 17.2699 30.2867 17.816 30.2867C 18.7836 30.2867 19.705 30.6379 20.4913 31.2018C 24.4919 34.0708 26.2484 35.7519 26.2484 38.6957ZM 21.1685 18.3061C 21.149 18.3258 21.1293 18.3454 21.1094 18.3647C 20.0836 19.3599 18.3758 20.1051 16.7942 20.1051C 16.7942 20.1051 16.7942 20.1051 16.7942 20.1051C 11.305 20.1051 8.81644 13.0849 8.81644 8.85012C 8.81644 8.85012 8.81644 8.85012 8.81644 8.85012C 8.81644 7.22532 9.12849 5.54095 10.1806 4.21928C 10.2063 4.18703 10.2323 4.15499 10.2586 4.12328C 11.287 2.88582 13.0493 2.08364 14.6896 2.08364C 14.6896 2.08364 14.6896 2.08364 14.6896 2.08364C 19.9886 2.08364 22.7359 9.16599 22.7359 13.7171C 22.7359 13.7171 22.7359 13.7171 22.7359 13.7171C 22.7359 14.8497 22.6075 16.8517 21.1685 18.3061Z"/>
<path id="path3_fill" d="M 11.24 12.62C 11.5467 12.62 11.7933 12.6933 11.98 12.84C 12.1667 12.9867 12.26 13.22 12.26 13.54C 12.26 13.7933 12.16 14.0133 11.96 14.2C 11.76 14.3733 11.52 14.46 11.24 14.46L 10.04 14.46L 10.04 16.98C 10.04 17.26 9.94 17.5 9.74 17.7C 9.55333 17.9 9.32 18 9.04 18C 8.77333 18 8.54667 17.9 8.36 17.7C 8.17333 17.5 8.08 17.26 8.08 16.98L 8.08 14.46L 1.42 14.46C 1.11333 14.46 0.866667 14.36 0.68 14.16C 0.493333 13.96 0.4 13.7267 0.4 13.46C 0.4 13.2333 0.466667 13.0333 0.6 12.86L 8.26 2.82C 8.48667 2.52667 8.76667 2.38 9.1 2.38C 9.38 2.38 9.60667 2.48 9.78 2.68C 9.95333 2.88 10.04 3.12667 10.04 3.42L 10.04 12.62L 11.24 12.62ZM 8.08 12.62L 8.08 6L 3.04 12.62L 8.08 12.62Z"/>
</defs>
</svg>
