<svg width="422" height="420" viewBox="0 0 422 420" version="1.1" xmlns="http://www.w3.org/2000/svg" xmlns:xlink="http://www.w3.org/1999/xlink">
<title>LOGO</title>
<desc>Created using Figma</desc>
<g id="Canvas" transform="matrix(2 0 0 2 -30982 -20670)">
<g id="LOGO">
<g id="Rectangle 2.5">
<use xlink:href="#path0_fill" transform="translate(15540 10335)" fill="#0F4DBF"/>
</g>
<g id="Rectangle 2.6">
<use xlink:href="#path1_fill" transform="translate(15573 10377)" fill="#FFFFFF"/>
</g>
<g id="Rectangle">
<use xlink:href="#path2_fill" transform="translate(15492 10335)" fill="#FF3D2E"/>
</g>
<g id="Rectangle">
<use xlink:href="#path3_fill" transform="matrix(6.12323e-17 1 -1 6.12323e-17 15582 10361)" fill="#FF3D2E"/>
</g>
<g id="Rectangle 2.337">
<use xlink:href="#path4_fill" transform="matrix(6.33258e-17 1 -1 5.92081e-17 15696 10335)" fill="#FFFFFF"/>
</g>
<g id="Rectangle 2.339">
<use xlink:href="#path4_fill" transform="matrix(6.33258e-17 1 -1 5.92081e-17 15684 10335)" fill="#FFFFFF"/>
</g>
<g id="Rectangle 2.341">
<use xlink:href="#path4_fill" transform="matrix(6.33258e-17 1 -1 5.92081e-17 15672 10335)" fill="#FFFFFF"/>
</g>
<g id="Rectangle 2.342">
<use xlink:href="#path4_fill" transform="matrix(6.33258e-17 1 -1 5.92081e-17 15660 10335)" fill="#FFFFFF"/>
</g>
<g id="Rectangle 2.343">
<use xlink:href="#path4_fill" transform="matrix(6.33258e-17 1 -1 5.92081e-17 15648 10335)" fill="#FFFFFF"/>
</g>
<g id="Rectangle 2.344">
<use xlink:href="#path4_fill" transform="matrix(6.33258e-17 1 -1 5.92081e-17 15636 10335)" fill="#FFFFFF"/>
</g>
<g id="Rectangle 2.345">
<use xlink:href="#path4_fill" transform="matrix(6.33258e-17 1 -1 5.92081e-17 15624 10335)" fill="#FFFFFF"/>
</g>
<g id="Rectangle 2.346">
<use xlink:href="#path4_fill" transform="matrix(6.33258e-17 1 -1 5.92081e-17 15612 10335)" fill="#FFFFFF"/>
</g>
<g id="Rectangle 2.347">
<use xlink:href="#path4_fill" transform="matrix(6.33258e-17 1 -1 5.92081e-17 15600 10335)" fill="#FFFFFF"/>
</g>
<g id="Rectangle 2.348">
<use xlink:href="#path4_fill" transform="matrix(6.33258e-17 1 -1 5.92081e-17 15588 10335)" fill="#FFFFFF"/>
</g>
<g id="Rectangle 2.349">
<use xlink:href="#path4_fill" transform="matrix(6.33258e-17 1 -1 5.92081e-17 15576 10335)" fill="#FFFFFF"/>
</g>
<g id="Rectangle 2.350">
<use xlink:href="#path4_fill" transform="matrix(6.33258e-17 1 -1 5.92081e-17 15564 10335)" fill="#FFFFFF"/>
</g>
<g id="Rectangle 2.351">
<use xlink:href="#path4_fill" transform="matrix(6.33258e-17 1 -1 5.92081e-17 15552 10335)" fill="#FFFFFF"/>
</g>
<g id="Rectangle 2.352">
<use xlink:href="#path4_fill" transform="matrix(6.33258e-17 1 -1 5.92081e-17 15540 10335)" fill="#FFFFFF"/>
</g>
<g id="Rectangle 2.353">
<use xlink:href="#path4_fill" transform="matrix(6.33258e-17 1 -1 5.92081e-17 15528 10335)" fill="#FFFFFF"/>
</g>
<g id="Rectangle 2.354">
<use xlink:href="#path4_fill" transform="matrix(6.33258e-17 1 -1 5.92081e-17 15516 10335)" fill="#FFFFFF"/>
</g>
<g id="Rectangle 2.355">
<use xlink:href="#path4_fill" transform="matrix(6.33258e-17 1 -1 5.92081e-17 15504 10335)" fill="#FFFFFF"/>
</g>
<g id="Rectangle 2.357">
<use xlink:href="#path5_fill" transform="matrix(-1 3.32994e-16 -4.50387e-17 -1 15582 10539)" fill="#FFFFFF"/>
</g>
<g id="Rectangle 2.358">
<use xlink:href="#path5_fill" transform="matrix(-1 3.32994e-16 -4.50387e-17 -1 15582 10527)" fill="#FFFFFF"/>
</g>
<g id="Rectangle 2.359">
<use xlink:href="#path5_fill" transform="matrix(-1 3.32994e-16 -4.50387e-17 -1 15582 10515)" fill="#FFFFFF"/>
</g>
<g id="Rectangle 2.360">
<use xlink:href="#path5_fill" transform="matrix(-1 3.32994e-16 -4.50387e-17 -1 15582 10503)" fill="#FFFFFF"/>
</g>
<g id="Rectangle 2.361">
<use xlink:href="#path5_fill" transform="matrix(-1 3.32994e-16 -4.50387e-17 -1 15582 10491)" fill="#FFFFFF"/>
</g>
<g id="Rectangle 2.362">
<use xlink:href="#path5_fill" transform="matrix(-1 3.32994e-16 -4.50387e-17 -1 15582 10479)" fill="#FFFFFF"/>
</g>
<g id="Rectangle 2.363">
<use xlink:href="#path5_fill" transform="matrix(-1 3.32994e-16 -4.50387e-17 -1 15582 10467)" fill="#FFFFFF"/>
</g>
<g id="Rectangle 2.364">
<use xlink:href="#path5_fill" transform="matrix(-1 3.32994e-16 -4.50387e-17 -1 15582 10455)" fill="#FFFFFF"/>
</g>
<g id="Rectangle 2.365">
<use xlink:href="#path5_fill" transform="matrix(-1 3.32994e-16 -4.50387e-17 -1 15582 10443)" fill="#FFFFFF"/>
</g>
<g id="Rectangle 2.366">
<use xlink:href="#path5_fill" transform="matrix(-1 3.32994e-16 -4.50387e-17 -1 15582 10431)" fill="#FFFFFF"/>
</g>
<g id="Rectangle 2.367">
<use xlink:href="#path5_fill" transform="matrix(-1 3.32994e-16 -4.50387e-17 -1 15582 10419)" fill="#FFFFFF"/>
</g>
<g id="Rectangle 2.368">
<use xlink:href="#path5_fill" transform="matrix(-1 3.32994e-16 -4.50387e-17 -1 15582 10407)" fill="#FFFFFF"/>
</g>
<g id="Rectangle 2.369">
<use xlink:href="#path5_fill" transform="matrix(-1 3.32994e-16 -4.50387e-17 -1 15582 10395)" fill="#FFFFFF"/>
</g>
<g id="Rectangle 2.370">
<use xlink:href="#path5_fill" transform="matrix(-1 3.32994e-16 -4.50387e-17 -1 15582 10383)" fill="#FFFFFF"/>
</g>
<g id="Rectangle 2.374">
<use xlink:href="#path6_fill" transform="matrix(-1 2.26232e-16 6.62929e-17 1 15628.3 10341)" fill="#FFFFFF"/>
</g>
<g id="Rectangle 2.377">
<use xlink:href="#path7_fill" transform="matrix(-1 2.26232e-16 -6.62929e-17 -1 15628.3 10371)" fill="#FFFFFF"/>
</g>
<g id="Rectangle 2.372">
<use xlink:href="#path8_fill" transform="matrix(-1 2.26232e-16 -6.62929e-17 -1 15630 10359)" fill="#FFFFFF"/>
</g>
<g id="CO">
<use xlink:href="#path9_fill" transform="matrix(1.11022e-16 -1 1 1.11022e-16 15542 10542)" fill="#0F4DBF"/>
<mask id="mask0_outline_ins">
<use xlink:href="#path9_fill" fill="white" transform="matrix(1.11022e-16 -1 1 1.11022e-16 15542 10542)"/>
</mask>
<g mask="url(#mask0_outline_ins)">
<use xlink:href="#path10_stroke_2x" transform="matrix(1.11022e-16 -1 1 1.11022e-16 15542 10542)" fill="#0F4DBF"/>
</g>
</g>
</g>
</g>
<defs>
<path id="path0_fill" d="M 0 32C 0 14.3269 14.3269 0 32 0L 92 0C 130.66 0 162 31.3401 162 70L 162 140C 162 178.66 130.66 210 92 210L 20 210C 8.9543 210 0 201.046 0 190L 0 32Z"/>
<path id="path1_fill" d="M 0 0L 52 0C 71.33 0 87 15.67 87 35L 87 91C 87 110.33 71.33 126 52 126L 0 126L 0 0Z"/>
<path id="path2_fill" d="M 0 20C 0 8.9543 8.9543 0 20 0L 118 0C 129.046 0 138 8.95431 138 20L 138 22C 138 33.0457 129.046 42 118 42L 20 42C 8.95431 42 0 33.0457 0 22L 0 20Z"/>
<path id="path3_fill" d="M 0 0L 164 0C 175.046 0 184 8.95431 184 20L 184 22C 184 33.0457 175.046 42 164 42L 0 42L 0 0Z"/>
<path id="path4_fill" d="M 0 0L 210 0L 210 6L 0 6L 0 0Z"/>
<path id="path5_fill" d="M 0 0L 89 0L 89 6L 0 6L 0 0Z"/>
<path id="path6_fill" d="M 4.00008 0L 135.33 0L 135.33 6L 0 6C 1.20576 3.3471 2.08913 2.03995 4.00008 0Z"/>
<path id="path7_fill" d="M 3.99033 0L 135 0L 135 6L 0 6C 1.20283 3.3471 2.08404 2.03995 3.99033 0Z"/>
<path id="path8_fill" d="M 0 0L 139 0L 139 6L 0 6L 0 0Z"/>
<path id="path9_fill" d="M 18 35.4C 15.1467 35.4 12.5333 34.6933 10.16 33.28C 7.81333 31.8667 5.96 29.9333 4.6 27.48C 3.24 25.0267 2.56 22.32 2.56 19.36C 2.56 16.4267 3.24 13.7467 4.6 11.32C 5.96 8.86667 7.81333 6.93333 10.16 5.52C 12.5333 4.08 15.1467 3.36 18 3.36C 20.0267 3.36 21.7733 3.62667 23.24 4.16C 24.7333 4.69333 26.24 5.57333 27.76 6.8C 28.08 7.04 28.2933 7.29333 28.4 7.56C 28.5067 7.8 28.56 8.09333 28.56 8.44C 28.56 8.97333 28.36 9.41333 27.96 9.76C 27.5867 10.1067 27.1467 10.28 26.64 10.28C 26.1333 10.28 25.6667 10.1067 25.24 9.76C 24.1467 8.82667 23.08 8.16 22.04 7.76C 21 7.33333 19.6533 7.12 18 7.12C 15.92 7.12 14 7.66667 12.24 8.76C 10.5067 9.85333 9.12 11.3467 8.08 13.24C 7.06667 15.1067 6.56 17.1467 6.56 19.36C 6.56 21.6 7.06667 23.6533 8.08 25.52C 9.12 27.3867 10.5067 28.8667 12.24 29.96C 14 31.0533 15.92 31.6 18 31.6C 20.56 31.6 23.0133 30.72 25.36 28.96C 25.8133 28.64 26.2533 28.48 26.68 28.48C 27.1867 28.48 27.6 28.6667 27.92 29.04C 28.2667 29.3867 28.44 29.8533 28.44 30.44C 28.44 31 28.2267 31.4933 27.8 31.92C 24.92 34.24 21.6533 35.4 18 35.4ZM 49.5337 35.4C 46.4404 35.4 43.6804 34.72 41.2538 33.36C 38.8538 32 36.9871 30.1067 35.6538 27.68C 34.3204 25.2267 33.6538 22.4533 33.6538 19.36C 33.6538 16.2667 34.3204 13.5067 35.6538 11.08C 36.9871 8.65333 38.8538 6.76 41.2538 5.4C 43.6804 4.04 46.4404 3.36 49.5337 3.36C 52.6004 3.36 55.3338 4.04 57.7338 5.4C 60.1604 6.76 62.0404 8.65333 63.3737 11.08C 64.7338 13.5067 65.4137 16.2667 65.4137 19.36C 65.4137 22.4533 64.7338 25.2267 63.3737 27.68C 62.0404 30.1067 60.1737 32 57.7737 33.36C 55.3737 34.72 52.6271 35.4 49.5337 35.4ZM 49.5337 31.64C 51.8004 31.64 53.8404 31.1067 55.6538 30.04C 57.4671 28.9467 58.8804 27.4667 59.8938 25.6C 60.9071 23.7333 61.4138 21.6533 61.4138 19.36C 61.4138 17.0667 60.9071 14.9867 59.8938 13.12C 58.8804 11.2533 57.4671 9.78667 55.6538 8.72C 53.8671 7.65333 51.8271 7.12 49.5337 7.12C 47.2404 7.12 45.1871 7.65333 43.3738 8.72C 41.5871 9.78667 40.1871 11.2533 39.1738 13.12C 38.1604 14.9867 37.6538 17.0667 37.6538 19.36C 37.6538 21.6533 38.1604 23.7333 39.1738 25.6C 40.1871 27.4667 41.6004 28.9467 43.4137 30.04C 45.2271 31.1067 47.2671 31.64 49.5337 31.64Z"/>
<path id="path10_stroke_2x" d="M 10.16 33.28L 9.12813 34.9933L 9.13669 34.9984L 10.16 33.28ZM 4.6 27.48L 2.85079 28.4497L 2.85079 28.4497L 4.6 27.48ZM 4.6 11.32L 6.3447 12.2978L 6.34921 12.2897L 4.6 11.32ZM 10.16 5.52L 11.1919 7.23328L 11.1975 7.22988L 10.16 5.52ZM 23.24 4.16L 22.5565 6.03962L 22.5673 6.04348L 23.24 4.16ZM 27.76 6.8L 26.504 8.3564L 26.5316 8.3787L 26.56 8.4L 27.76 6.8ZM 28.4 7.56L 26.543 8.30278L 26.5571 8.33781L 26.5724 8.37229L 28.4 7.56ZM 27.96 9.76L 26.6501 8.24863L 26.6242 8.27108L 26.5991 8.29441L 27.96 9.76ZM 25.24 9.76L 23.9415 11.2811L 23.96 11.2969L 23.9788 11.3122L 25.24 9.76ZM 22.04 7.76L 21.2809 9.61034L 21.3014 9.61874L 21.322 9.62669L 22.04 7.76ZM 12.24 8.76L 11.1846 7.06108L 11.173 7.0684L 12.24 8.76ZM 8.08 13.24L 6.32703 12.2771L 6.32229 12.2858L 8.08 13.24ZM 8.08 25.52L 6.32229 26.4742L 6.32753 26.4838L 6.33286 26.4934L 8.08 25.52ZM 12.24 29.96L 11.173 31.6516L 11.1846 31.6589L 12.24 29.96ZM 25.36 28.96L 24.2066 27.3261L 24.1831 27.3427L 24.16 27.36L 25.36 28.96ZM 27.92 29.04L 26.4015 30.3416L 26.4515 30.3999L 26.5058 30.4542L 27.92 29.04ZM 27.8 31.92L 29.0547 33.4775L 29.1383 33.4101L 29.2142 33.3342L 27.8 31.92ZM 18 33.4C 15.41 33.4174 13.3133 32.8517 11.1833 31.5616L 9.13669 34.9984C 11.7534 36.535 14.8833 37.3826 18 37.4L 18 33.4ZM 11.1919 31.5667C 9.06204 30.3044 7.56988 28.7466 6.34921 26.5103L 2.85079 28.4497C 4.35012 31.1201 6.56462 33.4289 9.12815 34.9933L 11.1919 31.5667ZM 6.34921 26.5103C 5.10017 24.292 4.54487 22.0745 4.56 19.36L 0.56 19.36C 0.575127 22.5655 1.37983 25.7614 2.85079 28.4497L 6.34921 26.5103ZM 4.56 19.36C 4.54458 16.6745 5.09759 14.4879 6.34469 12.2978L 2.85532 10.3422C 1.38241 13.0055 0.575417 16.1788 0.56 19.36L 4.56 19.36ZM 6.34921 12.2897C 7.56988 10.0534 9.06204 8.49562 11.1919 7.23327L 9.12815 3.80673C 6.56462 5.37105 4.35012 7.67995 2.85079 10.3503L 6.34921 12.2897ZM 11.1975 7.22988C 13.3252 5.91654 15.4147 5.34196 18 5.36L 18 1.36C 14.8786 1.37804 11.7414 2.24346 9.12255 3.81012L 11.1975 7.22988ZM 18 5.36C 19.8753 5.35426 21.2783 5.56442 22.5565 6.03959L 23.9235 2.28041C 22.2684 1.68891 20.178 1.36574 18 1.36L 18 5.36ZM 22.5673 6.04348C 23.889 6.50638 25.1044 7.21968 26.504 8.3564L 29.016 5.24361C 27.3756 3.92698 25.5776 2.88029 23.9127 2.27652L 22.5673 6.04348ZM 26.56 8.4C 26.6227 8.44706 26.639 8.46871 26.6302 8.45827C 26.62 8.44623 26.58 8.39527 26.543 8.30278L 30.257 6.81722C 29.9706 6.10145 29.4632 5.57742 28.96 5.2L 26.56 8.4ZM 26.5724 8.37229C 26.5531 8.32887 26.5503 8.30697 26.5523 8.31777C 26.5543 8.32918 26.56 8.3678 26.56 8.44L 30.56 8.44C 30.5519 7.91373 30.4179 7.21079 30.2276 6.74771L 26.5724 8.37229ZM 26.56 8.44C 26.56 8.45095 26.5594 8.40812 26.5893 8.34239C 26.6193 8.27627 26.6536 8.24566 26.6501 8.24863L 29.2699 11.2714C 30.112 10.5415 30.56 9.5483 30.56 8.44L 26.56 8.44ZM 26.5991 8.29441C 26.5887 8.30407 26.5855 8.30543 26.5902 8.30246C 26.5951 8.29933 26.6043 8.29416 26.6169 8.28918C 26.6296 8.28421 26.6404 8.28146 26.6473 8.28021C 26.6539 8.279 26.6522 8.28 26.64 8.28L 26.64 12.28C 27.5197 12.2449 28.6521 11.7992 29.3209 11.2256L 26.5991 8.29441ZM 26.64 8.28C 26.6201 8.28 26.6129 8.27756 26.6064 8.27515C 26.5978 8.27198 26.5627 8.25773 26.5012 8.20777L 23.9788 11.3122C 24.6747 11.8433 25.7796 12.2485 26.64 12.28L 26.64 8.28ZM 26.5385 8.23887C 25.3292 7.21369 23.9731 6.37047 22.758 5.89331L 21.322 9.62669C 22.1869 9.94953 22.9642 10.4396 23.9415 11.2811L 26.5385 8.23887ZM 22.7991 5.90966C 21.5397 5.40752 19.8103 5.12617 18 5.12L 18 9.12C 19.4964 9.11383 20.4603 9.25915 21.2809 9.61034L 22.7991 5.90966ZM 18 5.12C 15.6435 5.1392 13.1906 5.83775 11.1846 7.06112L 13.2954 10.4589C 14.8094 9.49559 16.1965 9.10079 18 9.12L 18 5.12ZM 11.173 7.0684C 9.22962 8.31413 7.49847 10.1759 6.32705 12.2771L 9.83295 14.2029C 10.7415 12.5174 11.7837 11.3925 13.307 10.4516L 11.173 7.0684ZM 6.32229 12.2858C 5.20229 14.3827 4.5748 16.9038 4.56 19.36L 8.56 19.36C 8.5452 17.3895 8.93104 15.8306 9.83771 14.1942L 6.32229 12.2858ZM 4.56 19.36C 4.57461 21.8413 5.20175 24.3759 6.32229 26.4742L 9.83771 24.5658C 8.93159 22.9308 8.54539 21.3587 8.56 19.36L 4.56 19.36ZM 6.33286 26.4934C 7.50463 28.5659 9.23307 30.4087 11.173 31.6516L 13.307 28.2684C 11.7803 27.3246 10.7354 26.2074 9.82714 24.5466L 6.33286 26.4934ZM 11.1846 31.6589C 13.1906 32.8823 15.6435 33.5808 18 33.6L 18 29.6C 16.1965 29.6192 14.8094 29.2244 13.2954 28.2611L 11.1846 31.6589ZM 18 33.6C 20.9027 33.5704 23.9616 32.4809 26.56 30.56L 24.16 27.36C 22.0651 28.9591 20.2173 29.6296 18 29.6L 18 33.6ZM 26.5134 30.5939C 26.621 30.518 26.6878 30.4889 26.7135 30.4796C 26.7357 30.4715 26.7214 30.48 26.68 30.48L 26.68 26.48C 25.732 26.48 24.8965 26.8391 24.2066 27.3261L 26.5134 30.5939ZM 26.68 30.48C 26.6829 30.48 26.6277 30.4792 26.5468 30.4427C 26.4644 30.4055 26.416 30.3585 26.4015 30.3416L 29.4385 27.7384C 28.7255 26.9066 27.7501 26.48 26.68 26.48L 26.68 30.48ZM 26.5058 30.4542C 26.4919 30.4403 26.4765 30.4218 26.4625 30.3998C 26.4484 30.3779 26.4398 30.3589 26.4352 30.3464C 26.4257 30.321 26.44 30.3429 26.44 30.44L 30.44 30.44C 30.44 29.4346 30.1282 28.4198 29.3342 27.6258L 26.5058 30.4542ZM 26.44 30.44C 26.44 30.4523 26.4389 30.4549 26.4398 30.4505C 26.4407 30.4459 26.4425 30.4404 26.4443 30.4362C 26.446 30.4322 26.4453 30.4351 26.4382 30.4454C 26.4308 30.456 26.415 30.4765 26.3858 30.5058L 29.2142 33.3342C 29.9838 32.5646 30.44 31.5742 30.44 30.44L 26.44 30.44ZM 26.5453 30.3625C 23.9442 32.4942 21.3138 33.429 18 33.4L 18 37.4C 21.9929 37.371 25.8958 35.9858 29.0547 33.4775L 26.5453 30.3625ZM 41.2538 33.36L 40.2677 35.1001L 40.276 35.1047L 41.2538 33.36ZM 35.6538 27.68L 33.8965 28.635L 33.9009 28.6431L 35.6538 27.68ZM 35.6538 11.08L 33.9009 10.1169L 33.9009 10.1169L 35.6538 11.08ZM 41.2538 5.4L 40.2759 3.65529L 40.2677 3.65996L 41.2538 5.4ZM 57.7338 5.4L 56.7477 7.14006L 56.756 7.14468L 57.7338 5.4ZM 63.3737 11.08L 61.6209 12.0431L 61.625 12.0505L 61.6291 12.0578L 63.3737 11.08ZM 63.3737 27.68L 61.6245 26.7103L 61.6209 26.7169L 63.3737 27.68ZM 57.7737 33.36L 58.7598 35.1L 57.7737 33.36ZM 55.6538 30.04L 56.6678 31.7639L 56.6771 31.7584L 56.6864 31.7528L 55.6538 30.04ZM 59.8938 25.6L 61.6515 26.5542L 61.6515 26.5542L 59.8938 25.6ZM 59.8938 13.12L 61.6515 12.1658L 61.6515 12.1658L 59.8938 13.12ZM 55.6538 8.72L 54.6285 10.4373L 54.6397 10.4439L 55.6538 8.72ZM 43.3738 8.72L 42.3597 6.99609L 42.3485 7.00276L 43.3738 8.72ZM 39.1738 13.12L 40.9315 14.0742L 40.9315 14.0742L 39.1738 13.12ZM 39.1738 25.6L 40.9315 24.6458L 40.9315 24.6458L 39.1738 25.6ZM 43.4137 30.04L 42.3811 31.7528L 42.3904 31.7584L 42.3997 31.7639L 43.4137 30.04ZM 49.5337 33.4C 46.6814 33.4146 44.4152 32.8599 42.2315 31.6153L 40.276 35.1047C 42.9456 36.5801 46.1994 37.3854 49.5337 37.4L 49.5337 33.4ZM 42.2398 31.62C 40.0705 30.4127 38.5908 28.9117 37.4066 26.7169L 33.9009 28.6431C 35.3833 31.3016 37.637 33.5873 40.2677 35.1L 42.2398 31.62ZM 37.411 26.725C 36.1873 24.5093 35.6399 22.218 35.6538 19.36L 31.6538 19.36C 31.6676 22.6887 32.4535 25.944 33.8965 28.635L 37.411 26.725ZM 35.6538 19.36C 35.6397 16.5031 36.1853 14.2294 37.4066 12.0431L 33.9009 10.1169C 32.4556 12.784 31.6678 16.0302 31.6538 19.36L 35.6538 19.36ZM 37.4066 12.0431C 38.5908 9.84831 40.0705 8.34729 42.2398 7.14004L 40.2677 3.65996C 37.637 5.17271 35.3833 7.45836 33.9009 10.1169L 37.4066 12.0431ZM 42.2315 7.14468C 44.4152 5.90014 46.6814 5.34543 49.5337 5.36L 49.5337 1.36C 46.1994 1.37457 42.9456 2.17986 40.276 3.65531L 42.2315 7.14468ZM 49.5337 5.36C 52.3572 5.34515 54.5925 5.89756 56.7477 7.14004L 58.7198 3.65995C 56.075 2.18244 52.8436 1.37484 49.5337 1.36L 49.5337 5.36ZM 56.756 7.14468C 58.9502 8.35232 60.4388 9.85116 61.6209 12.0431L 65.1266 10.1169C 63.642 7.45551 61.3706 5.16769 58.7115 3.65532L 56.756 7.14468ZM 61.6291 12.0578C 62.8736 14.2414 63.4283 16.5076 63.4137 19.36L 67.4137 19.36C 67.3992 16.0257 66.5939 12.7719 65.1184 10.1022L 61.6291 12.0578ZM 63.4137 19.36C 63.4282 22.2135 62.8715 24.4973 61.6245 26.7103L 65.123 28.6497C 66.596 25.9561 67.3993 22.6932 67.4137 19.36L 63.4137 19.36ZM 61.6209 26.7169C 60.4367 28.9117 58.957 30.4127 56.7877 31.62L 58.7598 35.1C 61.3905 33.5873 63.6442 31.3016 65.1266 28.6431L 61.6209 26.7169ZM 56.7877 31.62C 54.6335 32.862 52.385 33.4147 49.5337 33.4L 49.5337 37.4C 52.8692 37.3853 56.114 36.578 58.7598 35.1L 56.7877 31.62ZM 49.5337 33.64C 52.0554 33.6237 54.6077 32.9536 56.6678 31.7639L 54.6397 28.3161C 53.0732 29.2597 51.5454 29.6563 49.5337 29.64L 49.5337 33.64ZM 56.6864 31.7528C 58.7177 30.5074 60.4966 28.6447 61.6515 26.5542L 58.136 24.6458C 57.2642 26.2886 56.2165 27.3859 54.6211 28.3272L 56.6864 31.7528ZM 61.6515 26.5542C 62.7731 24.4531 63.3995 21.8917 63.4138 19.36L 59.4138 19.36C 59.428 21.415 59.0411 23.0136 58.136 24.6458L 61.6515 26.5542ZM 63.4138 19.36C 63.3995 16.8283 62.7731 14.2669 61.6515 12.1658L 58.136 14.0742C 59.0411 15.7064 59.428 17.305 59.4138 19.36L 63.4138 19.36ZM 61.6515 12.1658C 60.494 10.0716 58.7056 8.21632 56.6678 6.99613L 54.6397 10.4439C 56.2285 11.357 57.2669 12.435 58.136 14.0742L 61.6515 12.1658ZM 56.679 7.00276C 54.6403 5.80886 52.0821 5.13632 49.5337 5.12L 49.5337 9.12C 51.5721 9.10367 53.0938 9.49781 54.6285 10.4372L 56.679 7.00276ZM 49.5337 5.12C 46.987 5.13612 44.4213 5.80575 42.3597 6.99613L 44.3878 10.4439C 45.9529 9.50092 47.4939 9.10388 49.5337 9.12L 49.5337 5.12ZM 42.3485 7.00276C 40.3397 8.2233 38.5707 10.0755 37.416 12.1658L 40.9315 14.0742C 41.8034 12.4312 42.8344 11.35 44.399 10.4372L 42.3485 7.00276ZM 37.416 12.1658C 36.2944 14.2669 35.668 16.8283 35.6538 19.36L 39.6538 19.36C 39.6395 17.305 40.0264 15.7064 40.9315 14.0742L 37.416 12.1658ZM 35.6538 19.36C 35.668 21.8917 36.2944 24.4531 37.416 26.5542L 40.9315 24.6458C 40.0264 23.0136 39.6395 21.415 39.6538 19.36L 35.6538 19.36ZM 37.416 26.5542C 38.5709 28.6447 40.3498 30.5074 42.3811 31.7528L 44.4464 28.3272C 42.851 27.3859 41.8033 26.2886 40.9315 24.6458L 37.416 26.5542ZM 42.3997 31.7639C 44.4598 32.9536 47.0121 33.6237 49.5337 33.64L 49.5337 29.64C 47.5221 29.6563 45.9943 29.2597 44.4278 28.3161L 42.3997 31.7639Z"/>
</defs>
</svg>
